<svg width="65" height="81" viewBox="0 0 65 81" fill="none" xmlns="http://www.w3.org/2000/svg">
<rect y="18" width="62" height="61" rx="6" fill="#C4C4C4"/>
<circle cx="33.5" cy="22.5" r="22" fill="#FF5138" stroke="black"/>
<circle cx="34.5" cy="20.5" r="4.5" fill="white" stroke="black" stroke-width="2"/>
<rect x="4" y="20" width="61" height="61" rx="6" fill="white"/>
<path d="M18.2783 42.7417V47H15.7881V34.9141H20.5029C21.4105 34.9141 22.2074 35.0801 22.8936 35.4121C23.5853 35.7441 24.1165 36.2173 24.4873 36.8315C24.8581 37.4403 25.0435 38.1348 25.0435 38.915C25.0435 40.0993 24.6367 41.0345 23.8232 41.7207C23.0153 42.4014 21.8947 42.7417 20.4614 42.7417H18.2783ZM18.2783 40.7246H20.5029C21.1615 40.7246 21.6623 40.5697 22.0054 40.2598C22.354 39.9499 22.5283 39.5072 22.5283 38.9316C22.5283 38.3395 22.354 37.8608 22.0054 37.4956C21.6567 37.1304 21.1753 36.9422 20.561 36.9312H18.2783V40.7246ZM26.1143 42.4263C26.1143 41.5353 26.2858 40.7412 26.6289 40.0439C26.972 39.3467 27.4645 38.8071 28.1064 38.4253C28.7539 38.0435 29.5037 37.8525 30.356 37.8525C31.5679 37.8525 32.5557 38.2233 33.3193 38.9648C34.0885 39.7064 34.5174 40.7135 34.606 41.9863L34.6226 42.6006C34.6226 43.9785 34.238 45.0853 33.4688 45.9209C32.6995 46.751 31.6675 47.166 30.3726 47.166C29.0776 47.166 28.0428 46.751 27.2681 45.9209C26.4989 45.0908 26.1143 43.9619 26.1143 42.5342V42.4263ZM28.5132 42.6006C28.5132 43.4528 28.6737 44.1058 28.9946 44.5596C29.3156 45.0078 29.7749 45.2319 30.3726 45.2319C30.9536 45.2319 31.4074 45.0106 31.7339 44.5679C32.0604 44.1196 32.2236 43.4058 32.2236 42.4263C32.2236 41.5907 32.0604 40.9432 31.7339 40.4839C31.4074 40.0246 30.9481 39.7949 30.356 39.7949C29.7694 39.7949 29.3156 40.0246 28.9946 40.4839C28.6737 40.9377 28.5132 41.6432 28.5132 42.6006ZM39.3623 43.3975L38.499 44.2607V47H36.1001V34.25H38.499V41.314L38.9639 40.7163L41.2632 38.0186H44.1436L40.8979 41.7622L44.4258 47H41.6699L39.3623 43.3975ZM49.1489 47.166C47.8319 47.166 46.7583 46.762 45.9282 45.9541C45.1037 45.1462 44.6914 44.0698 44.6914 42.7251V42.4927C44.6914 41.5907 44.8657 40.7855 45.2144 40.0771C45.563 39.3633 46.0555 38.8154 46.6919 38.4336C47.3338 38.0462 48.0643 37.8525 48.8833 37.8525C50.1118 37.8525 51.0775 38.2399 51.7803 39.0146C52.4886 39.7894 52.8428 40.8879 52.8428 42.3101V43.2896H47.1235C47.201 43.8761 47.4334 44.3465 47.8208 44.7007C48.2137 45.0549 48.709 45.2319 49.3066 45.2319C50.2308 45.2319 50.953 44.8971 51.4731 44.2275L52.6519 45.5474C52.2922 46.0565 51.8052 46.4549 51.1909 46.7427C50.5767 47.0249 49.896 47.166 49.1489 47.166ZM48.875 39.7949C48.3991 39.7949 48.0117 39.9554 47.7129 40.2764C47.4196 40.5973 47.2314 41.0566 47.1484 41.6543H50.4854V41.4634C50.4743 40.9321 50.3304 40.5226 50.0537 40.2349C49.777 39.9416 49.3841 39.7949 48.875 39.7949ZM49.0908 34.25H51.7056L49.4062 36.8232H47.4556L49.0908 34.25ZM20.9429 63.8291C20.9429 63.3587 20.7769 62.999 20.4448 62.75C20.1128 62.4954 19.5151 62.2298 18.6519 61.9531C17.7886 61.6709 17.1051 61.3942 16.6016 61.123C15.2292 60.3815 14.543 59.3826 14.543 58.1265C14.543 57.4735 14.7256 56.8924 15.0908 56.3833C15.4616 55.8687 15.9901 55.4674 16.6763 55.1797C17.368 54.8919 18.1427 54.748 19.0005 54.748C19.8638 54.748 20.633 54.9058 21.3081 55.2212C21.9832 55.5311 22.5062 55.971 22.877 56.541C23.2533 57.111 23.4414 57.7585 23.4414 58.4834H20.9512C20.9512 57.93 20.7769 57.5011 20.4282 57.1968C20.0796 56.8869 19.5898 56.7319 18.959 56.7319C18.3503 56.7319 17.8771 56.862 17.5396 57.1221C17.202 57.3766 17.0332 57.7142 17.0332 58.1348C17.0332 58.5277 17.2297 58.8569 17.6226 59.1226C18.021 59.3882 18.6048 59.6372 19.374 59.8696C20.7907 60.2957 21.8228 60.8242 22.4702 61.4551C23.1177 62.0859 23.4414 62.8717 23.4414 63.8125C23.4414 64.8584 23.0457 65.6802 22.2544 66.2778C21.4631 66.87 20.3978 67.166 19.0586 67.166C18.1289 67.166 17.2822 66.9972 16.5186 66.6597C15.7549 66.3166 15.1711 65.849 14.7671 65.2568C14.3687 64.6647 14.1694 63.9785 14.1694 63.1982H16.668C16.668 64.5319 17.4648 65.1987 19.0586 65.1987C19.6507 65.1987 20.1128 65.0798 20.4448 64.8418C20.7769 64.5983 20.9429 64.2607 20.9429 63.8291ZM27.8491 55.8105V58.0186H29.3848V59.7783H27.8491V64.2607C27.8491 64.5928 27.9128 64.8307 28.04 64.9746C28.1673 65.1185 28.4108 65.1904 28.7705 65.1904C29.0361 65.1904 29.2713 65.1711 29.4761 65.1323V66.9502C29.0057 67.0941 28.5215 67.166 28.0234 67.166C26.3411 67.166 25.4834 66.3166 25.4502 64.6177V59.7783H24.1387V58.0186H25.4502V55.8105H27.8491ZM30.0986 62.4263C30.0986 61.5353 30.2702 60.7412 30.6133 60.0439C30.9564 59.3467 31.4489 58.8071 32.0908 58.4253C32.7383 58.0435 33.4881 57.8525 34.3403 57.8525C35.5522 57.8525 36.54 58.2233 37.3037 58.9648C38.0729 59.7064 38.5018 60.7135 38.5903 61.9863L38.6069 62.6006C38.6069 63.9785 38.2223 65.0853 37.4531 65.9209C36.6839 66.751 35.6519 67.166 34.3569 67.166C33.062 67.166 32.0272 66.751 31.2524 65.9209C30.4832 65.0908 30.0986 63.9619 30.0986 62.5342V62.4263ZM32.4976 62.6006C32.4976 63.4528 32.658 64.1058 32.979 64.5596C33.3 65.0078 33.7593 65.2319 34.3569 65.2319C34.938 65.2319 35.3918 65.0106 35.7183 64.5679C36.0448 64.1196 36.208 63.4058 36.208 62.4263C36.208 61.5907 36.0448 60.9432 35.7183 60.4839C35.3918 60.0246 34.9325 59.7949 34.3403 59.7949C33.7537 59.7949 33.3 60.0246 32.979 60.4839C32.658 60.9377 32.4976 61.6432 32.4976 62.6006ZM45.1313 60.2681C44.8049 60.2238 44.5171 60.2017 44.2681 60.2017C43.3605 60.2017 42.7656 60.5088 42.4834 61.123V67H40.0845V58.0186H42.3506L42.417 59.0894C42.8984 58.2648 43.5653 57.8525 44.4175 57.8525C44.6831 57.8525 44.9321 57.8885 45.1646 57.9604L45.1313 60.2681ZM50.2612 67.166C48.9442 67.166 47.8706 66.762 47.0405 65.9541C46.216 65.1462 45.8037 64.0698 45.8037 62.7251V62.4927C45.8037 61.5907 45.978 60.7855 46.3267 60.0771C46.6753 59.3633 47.1678 58.8154 47.8042 58.4336C48.4461 58.0462 49.1766 57.8525 49.9956 57.8525C51.2241 57.8525 52.1898 58.2399 52.8926 59.0146C53.6009 59.7894 53.9551 60.8879 53.9551 62.3101V63.2896H48.2358C48.3133 63.8761 48.5457 64.3465 48.9331 64.7007C49.326 65.0549 49.8213 65.2319 50.4189 65.2319C51.3431 65.2319 52.0653 64.8971 52.5854 64.2275L53.7642 65.5474C53.4045 66.0565 52.9175 66.4549 52.3032 66.7427C51.689 67.0249 51.0083 67.166 50.2612 67.166ZM49.9873 59.7949C49.5114 59.7949 49.124 59.9554 48.8252 60.2764C48.5319 60.5973 48.3438 61.0566 48.2607 61.6543H51.5977V61.4634C51.5866 60.9321 51.4427 60.5226 51.166 60.2349C50.8893 59.9416 50.4964 59.7949 49.9873 59.7949Z" fill="#FF5138"/>
</svg>
